<?xml version="1.0" encoding="UTF-8" standalone="no"?>
<!-- Created with Inkscape (http://www.inkscape.org/) -->


<svg
   xmlns:dc="http://purl.org/dc/elements/1.1/"
   xmlns:cc="http://creativecommons.org/ns#"
   xmlns:rdf="http://www.w3.org/1999/02/22-rdf-syntax-ns#"
   xmlns:svg="http://www.w3.org/2000/svg"
   xmlns="http://www.w3.org/2000/svg"
   version="1.1"
   width="260"
   height="260"
   id="svg2">
  <defs
     id="defs4" />
  <metadata
     id="metadata7">
    <rdf:RDF>
      <cc:Work
         rdf:about="">
        <dc:format>image/svg+xml</dc:format>
        <dc:type
           rdf:resource="http://purl.org/dc/dcmitype/StillImage" />
        <dc:title></dc:title>
      </cc:Work>
    </rdf:RDF>
  </metadata>
  <g
     transform="translate(-78.571428,-50.93366)"
     id="layer1">
    <path
       d="m 365.71429,659.50507 a 142.85715,127.14286 0 1 1 -285.71429,0 142.85715,127.14286 0 1 1 285.71429,0 z"
       transform="matrix(0.84000001,0,0,0.94382025,21.371427,-441.52057)"
       id="path3761"
       style="fill:#ff3285;fill-opacity:1" />
    <g
       id="text2985"
       style="font-size:66.84017181px;font-style:normal;font-weight:normal;line-height:125%;letter-spacing:0px;word-spacing:0px;fill:#ffffff;fill-opacity:1;stroke:none;font-family:Sans">
      <path
         d="m 182.29745,94.56333 c 1.60409,1.68e-4 2.96763,0.641833 4.09062,1.924997 1.12284,1.12308 1.6843,2.486618 1.68437,4.090623 -7e-5,1.60432 -0.56153,2.96786 -1.68437,4.09061 -1.12299,1.12308 -2.48653,1.68453 -4.09062,1.68438 -7.37922,1.5e-4 -12.51254,1.68452 -15.39998,5.05311 -2.88754,3.20848 -4.33129,9.54492 -4.33124,19.00935 l 0,12.51248 16.6031,0 c 1.6041,1.2e-4 2.96763,0.56158 4.09062,1.68437 1.28326,1.12304 1.92492,2.48657 1.925,4.09062 -8e-5,1.60428 -0.64174,3.04803 -1.925,4.33125 -1.12299,1.12302 -2.48652,1.68448 -4.09062,1.68437 l -16.6031,0 0,102.50609 c -5e-5,1.60417 -0.56151,2.96771 -1.68437,4.09062 -1.12296,1.12292 -2.4865,1.68437 -4.09062,1.68437 -1.60421,0 -3.04795,-0.56145 -4.33124,-1.68437 -1.12296,-1.12291 -1.68441,-2.48645 -1.68438,-4.09062 l 0,-102.50609 -15.6406,0 c -1.60418,1.1e-4 -2.96772,-0.56135 -4.09062,-1.68437 -1.12293,-1.28322 -1.68439,-2.72697 -1.68437,-4.33125 -2e-5,-1.60405 0.56144,-2.96758 1.68437,-4.09062 1.1229,-1.12279 2.48644,-1.68425 4.09062,-1.68437 l 15.6406,0 0,-12.51248 c 0.3208,-12.51234 2.88746,-21.65606 7.69999,-27.43121 5.13328,-5.614408 13.07388,-8.421692 23.82184,-8.42186"
         id="path3764"
         style="font-size:240.62463379px;font-variant:normal;font-stretch:normal;fill:#ffffff;fill-opacity:1;font-family:Quicksand;-inkscape-font-specification:Quicksand" />
      <path
         d="m 269.2419,94.56333 c 1.60409,1.68e-4 2.96763,0.641833 4.09062,1.924997 1.12284,1.12308 1.6843,2.486618 1.68437,4.090623 -7e-5,1.60432 -0.56153,2.96786 -1.68437,4.09061 -1.12299,1.12308 -2.48653,1.68453 -4.09062,1.68438 -7.37922,1.5e-4 -12.51254,1.68452 -15.39998,5.05311 -2.88754,3.20848 -4.33129,9.54492 -4.33124,19.00935 l 0,12.51248 16.6031,0 c 1.6041,1.2e-4 2.96764,0.56158 4.09062,1.68437 1.28326,1.12304 1.92492,2.48657 1.925,4.09062 -8e-5,1.60428 -0.64174,3.04803 -1.925,4.33125 -1.12298,1.12302 -2.48652,1.68448 -4.09062,1.68437 l -16.6031,0 0,102.50609 c -5e-5,1.60417 -0.56151,2.96771 -1.68437,4.09062 -1.12296,1.12292 -2.4865,1.68437 -4.09062,1.68437 -1.60421,0 -3.04795,-0.56145 -4.33124,-1.68437 -1.12296,-1.12291 -1.68441,-2.48645 -1.68438,-4.09062 l 0,-102.50609 -15.6406,0 c -1.60418,1.1e-4 -2.96772,-0.56135 -4.09062,-1.68437 -1.12293,-1.28322 -1.68439,-2.72697 -1.68437,-4.33125 -2e-5,-1.60405 0.56144,-2.96758 1.68437,-4.09062 1.1229,-1.12279 2.48644,-1.68425 4.09062,-1.68437 l 15.6406,0 0,-12.51248 c 0.3208,-12.51234 2.88746,-21.65606 7.69999,-27.43121 5.13328,-5.614408 13.07388,-8.421692 23.82184,-8.42186"
         id="path3766"
         style="font-size:240.62463379px;font-variant:normal;font-stretch:normal;fill:#ffffff;fill-opacity:1;font-family:Quicksand;-inkscape-font-specification:Quicksand" />
    </g>
  </g>
</svg>
