<?xml version="1.0" encoding="UTF-8" ?>
<!DOCTYPE svg PUBLIC "-//W3C//DTD SVG 1.1//EN" "http://www.w3.org/Graphics/SVG/1.1/DTD/svg11.dtd">
<svg width="440pt" height="60pt" viewBox="0 0 440 60" version="1.1" xmlns="http://www.w3.org/2000/svg">
<path fill="#fefefd" d=" M 0.00 0.00 L 440.00 0.00 L 440.00 60.00 L 0.00 60.00 L 0.00 0.00 Z" />
<path fill="#010102" d=" M 7.90 8.08 C 12.63 7.95 17.37 8.00 22.10 8.03 C 23.83 14.51 25.47 21.01 27.27 27.47 C 29.52 21.12 30.67 14.46 32.55 8.01 C 37.22 8.01 41.88 7.99 46.55 8.01 C 46.55 20.01 46.52 32.00 46.57 43.99 C 43.28 44.00 39.99 44.02 36.71 44.03 C 36.55 35.32 37.07 26.59 36.39 17.91 C 34.23 26.57 31.80 35.18 29.96 43.92 C 27.65 43.98 25.33 44.00 23.01 43.98 C 21.07 35.18 18.51 26.51 16.37 17.75 C 15.95 26.48 16.20 35.22 16.16 43.95 C 13.48 43.99 10.80 44.01 8.12 44.01 C 7.78 32.03 8.35 20.05 7.90 8.08 Z" />
<path fill="#010102" d=" M 50.60 44.00 C 54.54 32.07 57.98 19.97 61.81 8.00 C 65.56 8.00 69.32 7.98 73.07 8.03 C 76.66 20.04 80.36 32.03 84.20 43.96 C 80.56 44.01 76.91 44.02 73.27 43.95 C 72.64 41.63 71.96 39.34 71.34 37.02 C 68.03 36.99 64.73 36.99 61.42 37.02 C 60.66 39.33 59.95 41.65 59.27 43.99 C 56.38 43.99 53.49 44.00 50.60 44.00 Z" />
<path fill="#010102" d=" M 86.83 8.03 C 94.47 8.48 102.69 6.54 109.81 10.11 C 121.17 16.54 121.22 35.36 109.88 41.83 C 102.75 45.43 94.49 43.56 86.84 43.96 C 86.80 31.99 86.84 20.01 86.83 8.03 Z" />
<path fill="#010102" d=" M 265.52 10.43 C 268.38 8.36 272.00 7.78 275.46 7.99 C 280.33 9.12 284.31 12.53 285.73 17.38 C 284.56 17.75 283.39 18.12 282.22 18.48 C 281.05 14.90 278.40 11.05 274.23 11.00 C 270.33 10.30 266.64 12.61 264.72 15.89 C 261.46 21.27 260.57 27.89 261.47 34.05 C 262.13 38.99 266.98 43.06 272.04 41.97 C 277.65 41.03 279.71 34.92 280.61 30.04 C 277.57 30.00 274.54 29.99 271.50 30.02 C 271.60 29.27 271.79 27.77 271.88 27.01 C 276.21 26.99 280.54 27.00 284.87 26.99 C 283.77 32.52 282.85 38.08 281.93 43.64 C 281.42 43.80 280.41 44.11 279.90 44.27 C 279.68 42.80 279.46 41.33 279.25 39.86 C 275.86 45.95 267.01 46.45 262.06 42.02 C 257.52 37.87 256.18 31.05 257.34 25.18 C 258.27 19.58 260.68 13.75 265.52 10.43 Z" />
<path fill="#010102" d=" M 352.81 9.82 C 359.39 5.86 369.22 8.47 372.20 15.76 C 371.12 16.20 370.05 16.63 368.98 17.08 C 367.05 12.50 362.05 9.88 357.18 11.15 C 352.39 11.62 350.21 18.87 354.41 21.53 C 358.87 24.09 364.71 23.53 368.70 27.07 C 373.34 31.56 371.80 40.29 366.06 43.11 C 358.60 47.09 346.92 44.93 344.28 35.99 C 345.45 35.54 346.63 35.08 347.82 34.62 C 349.64 41.70 358.73 44.16 364.56 40.47 C 368.08 38.33 368.88 32.17 364.90 30.08 C 360.35 27.73 354.67 27.85 350.67 24.38 C 346.61 20.34 347.77 12.53 352.81 9.82 Z" />
<path fill="#010102" d=" M 128.01 9.13 C 133.17 9.05 138.39 8.67 143.52 9.28 C 148.59 9.94 151.93 15.88 149.61 20.49 C 148.69 23.12 146.06 24.28 143.75 25.39 C 149.60 27.86 150.40 36.00 146.58 40.54 C 144.16 43.09 140.49 44.14 137.05 44.02 C 132.18 44.01 127.31 43.97 122.44 44.02 C 124.14 32.37 126.56 20.82 128.01 9.13 Z" />
<path fill="#010102" d=" M 160.01 9.13 C 167.19 8.87 174.39 9.03 181.57 9.03 C 181.43 9.75 181.15 11.18 181.01 11.90 C 175.19 12.10 169.35 11.95 163.52 12.03 C 162.85 15.98 162.26 19.95 161.56 23.90 C 166.55 24.09 171.54 23.98 176.53 24.02 C 176.40 24.75 176.15 26.21 176.02 26.94 C 171.00 27.03 165.97 26.95 160.94 27.08 C 160.39 31.73 159.63 36.34 158.81 40.95 C 165.11 41.06 171.42 40.96 177.72 41.03 C 177.51 42.00 177.30 42.98 177.09 43.96 C 169.53 44.04 161.97 43.98 154.41 44.01 C 156.18 32.37 158.52 20.82 160.01 9.13 Z" />
<path fill="#010102" d=" M 184.67 8.93 C 186.11 8.99 187.56 9.06 189.02 9.14 C 190.76 18.58 192.33 28.08 194.62 37.39 C 199.13 27.98 203.68 18.57 208.06 9.09 C 209.00 9.06 210.89 9.00 211.84 8.96 C 206.18 20.61 200.55 32.26 194.95 43.93 C 193.80 43.96 192.65 43.99 191.51 44.03 C 189.27 32.32 186.93 20.63 184.67 8.93 Z" />
<path fill="#010102" d=" M 206.33 43.99 C 215.00 32.41 223.71 20.83 232.15 9.08 C 239.72 8.88 247.30 9.08 254.87 9.00 C 254.70 9.99 254.52 10.99 254.36 11.99 C 248.49 11.99 242.63 12.00 236.77 12.02 C 236.24 16.03 235.42 20.00 235.02 24.03 C 239.98 23.98 244.94 23.99 249.90 24.04 C 249.70 25.02 249.50 26.00 249.30 26.98 C 244.34 27.00 239.38 27.02 234.42 26.97 C 233.59 31.64 232.98 36.34 232.23 41.02 C 238.49 41.00 244.74 41.00 251.00 40.99 C 250.81 42.00 250.62 43.01 250.43 44.02 C 242.80 43.90 235.16 44.16 227.53 43.87 C 228.55 39.98 229.02 35.98 229.73 32.03 C 226.19 31.99 222.65 31.96 219.12 32.07 C 216.18 36.07 213.37 40.17 210.25 44.04 C 208.94 44.02 207.63 44.00 206.33 43.99 Z" />
<path fill="#010102" d=" M 296.00 9.13 C 303.19 8.84 310.38 9.09 317.56 9.00 C 317.43 9.72 317.16 11.18 317.03 11.90 C 311.21 12.08 305.38 11.98 299.55 11.98 C 298.84 15.99 298.20 20.00 297.63 24.03 C 302.60 24.00 307.56 24.00 312.53 24.02 C 312.40 24.75 312.15 26.22 312.02 26.95 C 306.99 27.03 301.96 26.96 296.94 27.07 C 296.41 31.73 295.51 36.35 295.01 41.01 C 301.25 41.00 307.49 40.99 313.73 41.02 C 313.51 42.00 313.30 42.98 313.10 43.96 C 305.54 44.03 297.97 43.99 290.41 44.01 C 292.18 32.37 294.53 20.81 296.00 9.13 Z" />
<path fill="#010102" d=" M 325.97 9.10 C 327.38 9.06 328.80 9.03 330.22 9.01 C 328.17 19.61 326.79 30.32 324.84 40.93 C 330.55 41.06 336.25 40.98 341.96 40.99 C 341.87 41.73 341.69 43.22 341.60 43.97 C 334.53 44.05 327.47 43.96 320.41 43.99 C 322.18 32.34 324.56 20.79 325.97 9.10 Z" />
<path fill="#010102" d=" M 382.06 9.14 C 389.21 8.84 396.37 9.08 403.53 8.99 C 403.41 9.72 403.15 11.18 403.03 11.91 C 397.20 12.09 391.36 11.95 385.53 12.03 C 384.86 16.01 384.22 19.99 383.64 23.98 C 388.59 24.00 393.55 24.01 398.51 24.00 C 398.41 24.73 398.20 26.19 398.10 26.92 C 393.05 27.07 387.99 26.91 382.94 27.09 C 382.41 31.75 381.46 36.35 381.02 41.02 C 387.25 40.97 393.48 41.04 399.71 41.00 C 399.55 41.74 399.24 43.21 399.09 43.94 C 391.53 44.06 383.97 43.96 376.41 44.02 C 378.22 32.38 380.45 20.81 382.06 9.14 Z" />
<path fill="#010102" d=" M 411.06 9.08 C 412.63 9.06 414.20 9.06 415.77 9.13 C 419.76 18.55 424.09 27.82 428.35 37.12 C 430.19 27.84 431.80 18.49 432.97 9.10 C 433.80 9.08 435.44 9.05 436.26 9.03 C 434.12 20.68 432.45 32.42 430.42 44.10 C 429.60 44.02 427.96 43.85 427.14 43.77 C 422.98 33.65 418.09 23.83 413.69 13.81 C 411.62 23.80 410.24 33.92 408.48 43.97 C 407.71 43.98 406.17 44.00 405.40 44.01 C 407.23 32.36 409.46 20.77 411.06 9.08 Z" />
<path fill="#fefefd" d=" M 131.53 12.04 C 135.56 12.15 139.67 11.54 143.63 12.42 C 148.28 14.81 146.71 22.33 141.98 23.63 C 137.90 24.38 133.72 23.84 129.61 24.02 C 130.22 20.02 130.84 16.03 131.53 12.04 Z" />
<path fill="#fefefd" d=" M 221.62 28.90 C 225.35 24.02 228.81 18.94 232.65 14.14 C 232.00 19.09 230.96 23.98 230.28 28.93 C 227.39 29.01 224.51 29.01 221.62 28.90 Z" />
<path fill="#fefefd" d=" M 97.55 15.94 C 100.17 16.06 103.49 15.48 105.13 18.12 C 108.02 22.80 108.12 29.42 104.92 33.98 C 103.33 36.50 100.06 35.93 97.54 36.08 C 97.54 29.37 97.51 22.65 97.55 15.94 Z" />
<path fill="#fefefd" d=" M 66.24 18.55 C 67.59 21.96 68.40 25.54 69.45 29.04 C 67.37 29.01 65.28 28.98 63.20 28.95 C 64.27 25.50 65.14 21.99 66.24 18.55 Z" />
<path fill="#fefefd" d=" M 128.95 27.10 C 132.97 27.05 137.01 26.78 141.02 27.17 C 147.23 28.93 146.07 39.92 139.82 40.82 C 135.50 41.23 131.14 40.92 126.81 40.97 C 127.57 36.35 128.34 31.74 128.95 27.10 Z" />
<path fill="#010102" d=" M 120.99 46.98 C 225.00 47.02 329.00 46.98 433.00 47.00 C 432.99 48.67 432.99 50.33 433.00 52.00 C 329.00 52.01 225.00 51.99 121.00 52.01 C 121.00 50.33 121.00 48.66 120.99 46.98 Z" />
</svg>
